<svg preserveAspectRatio="none" width="100%" height="100%" overflow="visible" style="display: block;" viewBox="0 0 20 20" fill="none" xmlns="http://www.w3.org/2000/svg">
<g id="arrow-square-left">
<path id="Vector" d="M13.4917 1.66667H6.50833C3.475 1.66667 1.66667 3.475 1.66667 6.50833V13.4833C1.66667 16.525 3.475 18.3333 6.50833 18.3333H13.4833C16.5167 18.3333 18.325 16.525 18.325 13.4917V6.50833C18.3333 3.475 16.525 1.66667 13.4917 1.66667ZM11.4917 12.5C11.7333 12.7417 11.7333 13.1417 11.4917 13.3833C11.3667 13.5083 11.2083 13.5667 11.05 13.5667C10.8917 13.5667 10.7333 13.5083 10.6083 13.3833L7.66667 10.4417C7.425 10.2 7.425 9.8 7.66667 9.55833L10.6083 6.61667C10.85 6.375 11.25 6.375 11.4917 6.61667C11.7333 6.85833 11.7333 7.25833 11.4917 7.5L8.99167 10L11.4917 12.5Z" fill="var(--fill-0, white)"/>
<g id="Vector_2" opacity="0">
</g>
</g>
</svg>
