<svg preserveAspectRatio="none" width="100%" height="100%" overflow="visible" style="display: block;" viewBox="0 0 20 20" fill="none" xmlns="http://www.w3.org/2000/svg">
<g id="export">
<path id="Vector" d="M13.4917 1.66667H6.50833C3.475 1.66667 1.66667 3.475 1.66667 6.50833V13.4833C1.66667 16.525 3.475 18.3333 6.50833 18.3333H13.4833C16.5167 18.3333 18.325 16.525 18.325 13.4917V6.50833C18.3333 3.475 16.525 1.66667 13.4917 1.66667ZM14.375 10.275C14.375 10.6167 14.0917 10.9 13.75 10.9C13.4083 10.9 13.125 10.6167 13.125 10.275V7.75833L6.69167 14.1917C6.56667 14.3167 6.40833 14.375 6.25 14.375C6.09167 14.375 5.93333 14.3167 5.80833 14.1917C5.56667 13.95 5.56667 13.55 5.80833 13.3083L12.2417 6.875H9.725C9.38333 6.875 9.1 6.59167 9.1 6.25C9.1 5.90833 9.38333 5.625 9.725 5.625H13.75C14.0917 5.625 14.375 5.90833 14.375 6.25V10.275Z" fill="var(--fill-0, black)" fill-opacity="0.18"/>
<g id="Vector_2" opacity="0">
</g>
</g>
</svg>
