<svg preserveAspectRatio="none" width="100%" height="100%" overflow="visible" style="display: block;" viewBox="0 0 24 24" fill="none" xmlns="http://www.w3.org/2000/svg">
<g id="ranking">
<g id="Vector" opacity="0">
</g>
<path id="Vector_2" d="M6.67 14H4C2.9 14 2 14.9 2 16V21C2 21.55 2.45 22 3 22H6.67C7.22 22 7.67 21.55 7.67 21V15C7.67 14.45 7.22 14 6.67 14Z" fill="var(--fill-0, #989898)"/>
<path id="Vector_3" d="M13.33 10H10.66C9.56 10 8.66 10.9 8.66 12V21C8.66 21.55 9.11 22 9.66 22H14.33C14.88 22 15.33 21.55 15.33 21V12C15.33 10.9 14.44 10 13.33 10Z" fill="var(--fill-0, #989898)"/>
<path id="Vector_4" d="M20 17H17.33C16.78 17 16.33 17.45 16.33 18V21C16.33 21.55 16.78 22 17.33 22H21C21.55 22 22 21.55 22 21V19C22 17.9 21.1 17 20 17Z" fill="var(--fill-0, #989898)"/>
<path id="Vector_5" d="M15.0099 4.85047C15.3199 4.54047 15.4399 4.17047 15.3399 3.85047C15.2399 3.53047 14.9299 3.30047 14.4899 3.23047L13.5299 3.07047C13.4899 3.07047 13.3999 3.00047 13.3799 2.96047L12.8499 1.90047C12.4499 1.09047 11.5399 1.09047 11.1399 1.90047L10.6099 2.96047C10.5999 3.00047 10.5099 3.07047 10.4699 3.07047L9.50994 3.23047C9.06994 3.30047 8.76994 3.53047 8.65994 3.85047C8.55994 4.17047 8.67994 4.54047 8.98994 4.85047L9.72994 5.60047C9.76994 5.63047 9.79994 5.75047 9.78994 5.79047L9.57994 6.71047C9.41994 7.40047 9.67994 7.71047 9.84994 7.83047C10.0199 7.95047 10.3899 8.11047 10.9999 7.75047L11.8999 7.22047C11.9399 7.19047 12.0699 7.19047 12.1099 7.22047L12.9999 7.75047C13.2799 7.92047 13.5099 7.97047 13.6899 7.97047C13.8999 7.97047 14.0499 7.89047 14.1399 7.83047C14.3099 7.71047 14.5699 7.40047 14.4099 6.71047L14.1999 5.79047C14.1899 5.74047 14.2199 5.63047 14.2599 5.60047L15.0099 4.85047Z" fill="var(--fill-0, #989898)"/>
</g>
</svg>
