<svg preserveAspectRatio="none" width="100%" height="100%" overflow="visible" style="display: block;" viewBox="0 0 20 20" fill="none" xmlns="http://www.w3.org/2000/svg">
<g id="path">
<path id="Vector" d="M16.6832 8.91701L14.9166 10.0337C14.5832 10.242 14.1582 10.192 13.8832 9.91701L10.1082 6.14201C9.83323 5.86701 9.78323 5.44201 9.99156 5.10868L11.1082 3.34201C11.7916 2.26701 13.1582 2.21701 14.1666 3.21701L16.8166 5.86701C17.7499 6.80868 17.6916 8.27534 16.6832 8.91701Z" fill="var(--fill-0, white)"/>
<path id="Vector_2" d="M12.2585 16.6254L4.99187 17.4754C4.33144 17.5635 4.15717 16.7851 4.6283 16.314L6.6502 14.2921C6.91687 14.0338 6.91687 13.6254 6.6502 13.3671C6.4002 13.1088 5.99187 13.1088 5.7252 13.3671L3.69669 15.3956C3.2288 15.8635 2.46519 15.691 2.54187 15.0338L3.4002 7.76711C3.61687 5.95044 4.28354 5.35044 6.2002 5.46711L7.4502 5.54211C7.85854 5.56711 8.24187 5.74211 8.53354 6.03378L13.9919 11.4921C14.2835 11.7838 14.4585 12.1671 14.4752 12.5754L14.5502 13.8254C14.7419 15.7504 14.0835 16.4171 12.2585 16.6254Z" fill="var(--fill-0, white)"/>
<g id="Vector_3" opacity="0">
</g>
</g>
</svg>
