<svg preserveAspectRatio="none" width="100%" height="100%" overflow="visible" style="display: block;" viewBox="0 0 20 20" fill="none" xmlns="http://www.w3.org/2000/svg">
<g id="info-circle">
<path id="Vector" d="M9.99967 18.334C14.5913 18.334 18.333 14.5923 18.333 10.0007C18.333 5.40898 14.5913 1.66732 9.99968 1.66732C5.40801 1.66732 1.66634 5.40898 1.66634 10.0006C1.66634 14.5923 5.40801 18.334 9.99967 18.334ZM10.6247 13.334C10.6247 13.6757 10.3413 13.959 9.99968 13.959C9.65801 13.959 9.37468 13.6757 9.37468 13.334L9.37468 9.16732C9.37468 8.82565 9.65801 8.54232 9.99968 8.54232C10.3413 8.54232 10.6247 8.82565 10.6247 9.16732L10.6247 13.334ZM9.23301 6.35065C9.27468 6.24232 9.33301 6.15898 9.40801 6.07565C9.49134 6.00065 9.58301 5.94232 9.68301 5.90065C9.78301 5.85898 9.89134 5.83398 9.99968 5.83398C10.108 5.83398 10.2163 5.85898 10.3163 5.90065C10.4163 5.94232 10.508 6.00065 10.5913 6.07565C10.6663 6.15898 10.7247 6.24232 10.7663 6.35065C10.808 6.45065 10.833 6.55898 10.833 6.66732C10.833 6.77565 10.808 6.88398 10.7663 6.98398C10.7247 7.08398 10.6663 7.17565 10.5913 7.25898C10.508 7.33398 10.4163 7.39232 10.3163 7.43398C10.1163 7.51732 9.88301 7.51732 9.68301 7.43398C9.58301 7.39232 9.49134 7.33398 9.40801 7.25898C9.33301 7.17565 9.27468 7.08398 9.23301 6.98398C9.19134 6.88398 9.16634 6.77565 9.16634 6.66732C9.16634 6.55898 9.19134 6.45065 9.23301 6.35065Z" fill="var(--fill-0, white)"/>
<g id="Vector_2" opacity="0">
</g>
</g>
</svg>
