<svg preserveAspectRatio="none" width="100%" height="100%" overflow="visible" style="display: block;" viewBox="0 0 20 20" fill="none" xmlns="http://www.w3.org/2000/svg">
<g id="element-4">
<path id="Vector" d="M17.9168 9.08268V3.41602C17.9168 2.16602 17.3835 1.66602 16.0585 1.66602H12.6918C11.3668 1.66602 10.8335 2.16602 10.8335 3.41602V9.08268C10.8335 10.3327 11.3668 10.8327 12.6918 10.8327H16.0585C17.3835 10.8327 17.9168 10.3327 17.9168 9.08268Z" fill="var(--fill-0, #373737)"/>
<path id="Vector_2" d="M9.16683 10.916V16.5827C9.16683 17.8327 8.6335 18.3327 7.3085 18.3327H3.94183C2.61683 18.3327 2.0835 17.8327 2.0835 16.5827V10.916C2.0835 9.66602 2.61683 9.16602 3.94183 9.16602H7.3085C8.6335 9.16602 9.16683 9.66602 9.16683 10.916Z" fill="var(--fill-0, #373737)"/>
<g id="Vector_3" opacity="0">
</g>
<path id="Vector_4" d="M17.9167 16.5833V14.25C17.9167 13 17.3833 12.5 16.0583 12.5H12.6917C11.3667 12.5 10.8333 13 10.8333 14.25V16.5833C10.8333 17.8333 11.3667 18.3333 12.6917 18.3333H16.0583C17.3833 18.3333 17.9167 17.8333 17.9167 16.5833Z" fill="var(--fill-0, #373737)"/>
<path id="Vector_5" d="M9.16683 5.74935V3.41602C9.16683 2.16602 8.6335 1.66602 7.3085 1.66602H3.94183C2.61683 1.66602 2.0835 2.16602 2.0835 3.41602V5.74935C2.0835 6.99935 2.61683 7.49935 3.94183 7.49935H7.3085C8.6335 7.49935 9.16683 6.99935 9.16683 5.74935Z" fill="var(--fill-0, #373737)"/>
</g>
</svg>
