<svg preserveAspectRatio="none" width="100%" height="100%" overflow="visible" style="display: block;" viewBox="0 0 20 20" fill="none" xmlns="http://www.w3.org/2000/svg">
<g id="close-square">
<path id="Vector" d="M13.4976 1.66667H6.51075C3.4759 1.66667 1.66667 3.475 1.66667 6.50833V13.4833C1.66667 16.525 3.4759 18.3333 6.51075 18.3333H13.4892C16.5241 18.3333 18.3333 16.525 18.3333 13.4917V6.50833C18.3416 3.475 16.5324 1.66667 13.4976 1.66667ZM12.8055 11.9167C13.0473 12.1583 13.0473 12.5583 12.8055 12.8C12.6805 12.925 12.5221 12.9833 12.3637 12.9833C12.2053 12.9833 12.0468 12.925 11.9218 12.8L10.0042 10.8833L8.08653 12.8C7.96147 12.925 7.80306 12.9833 7.64465 12.9833C7.48623 12.9833 7.32782 12.925 7.20276 12.8C6.96097 12.5583 6.96097 12.1583 7.20276 11.9167L9.12038 10L7.20276 8.08333C6.96097 7.84167 6.96097 7.44167 7.20276 7.2C7.44455 6.95833 7.84474 6.95833 8.08653 7.2L10.0042 9.11667L11.9218 7.2C12.1636 6.95833 12.5638 6.95833 12.8055 7.2C13.0473 7.44167 13.0473 7.84167 12.8055 8.08333L10.8879 10L12.8055 11.9167Z" fill="var(--fill-0, white)"/>
<g id="Vector_2" opacity="0">
</g>
</g>
</svg>
