<svg preserveAspectRatio="none" width="100%" height="100%" overflow="visible" style="display: block;" viewBox="0 0 19.6114 19.6114" fill="none" xmlns="http://www.w3.org/2000/svg">
<path id="Vector" d="M14.2627 0.886719C16.2885 0.211227 17.6728 0.484058 18.3994 1.21191C19.0811 1.89489 19.3634 3.1574 18.8438 4.98242L18.7285 5.35547L15.6035 14.7236V14.7246C15.0899 16.2686 14.5053 17.3873 13.9082 18.1104C13.3097 18.835 12.7439 19.1113 12.2559 19.1113C11.7679 19.1112 11.2028 18.8348 10.6045 18.1104C10.082 17.4776 9.56961 16.5418 9.10547 15.2832L8.90918 14.7246L7.98535 11.9404L7.90625 11.7031L7.66797 11.624L4.88477 10.6992H4.88574C3.34193 10.1853 2.22282 9.60153 1.5 9.00488C0.775645 8.40694 0.5 7.842 0.5 7.35449C0.500174 6.86692 0.776541 6.30229 1.50098 5.70313C2.22388 5.10525 3.34221 4.51935 4.88574 4.00293L4.88477 4.00195L14.2627 0.886719ZM14.791 4.5459C14.2946 4.04931 13.4788 4.04931 12.9824 4.5459L12.9814 4.54688L9.03516 8.51465C8.53983 9.01116 8.54034 9.82606 9.03613 10.3223C9.29056 10.5768 9.61766 10.6972 9.94043 10.6973C10.2632 10.6973 10.5903 10.5768 10.8447 10.3223L10.8457 10.3213L14.791 6.35254C15.2863 5.85599 15.2869 5.04208 14.791 4.5459Z" fill="var(--fill-0, white)" stroke="var(--stroke-0, white)"/>
</svg>
